<?xml version="1.0" encoding="UTF-8" standalone="no"?>
<!-- Created with Inkscape (http://www.inkscape.org/) -->

<svg
   width="210mm"
   height="40mm"
   viewBox="0 0 210 40"
   version="1.1"
   id="svg5"
   xml:space="preserve"
   inkscape:export-filename="logo.svg"
   inkscape:export-xdpi="90"
   inkscape:export-ydpi="90"
   inkscape:version="1.2.1 (9c6d41e410, 2022-07-14)"
   sodipodi:docname="logo_inkScape.svg"
   xmlns:inkscape="http://www.inkscape.org/namespaces/inkscape"
   xmlns:sodipodi="http://sodipodi.sourceforge.net/DTD/sodipodi-0.dtd"
   xmlns="http://www.w3.org/2000/svg"
   xmlns:svg="http://www.w3.org/2000/svg"><sodipodi:namedview
     id="namedview7"
     pagecolor="#ffffff"
     bordercolor="#000000"
     borderopacity="0.25"
     inkscape:showpageshadow="2"
     inkscape:pageopacity="0.0"
     inkscape:pagecheckerboard="0"
     inkscape:deskcolor="#d1d1d1"
     inkscape:document-units="mm"
     showgrid="false"
     inkscape:zoom="1"
     inkscape:cx="351.49999"
     inkscape:cy="95.999997"
     inkscape:window-width="1920"
     inkscape:window-height="1009"
     inkscape:window-x="1912"
     inkscape:window-y="1"
     inkscape:window-maximized="1"
     inkscape:current-layer="layer1" /><defs
     id="defs2"><clipPath
       clipPathUnits="userSpaceOnUse"
       id="clipPath461"><path
         style="fill:#ffffff;fill-rule:evenodd;stroke-width:0.845873;paint-order:markers fill stroke"
         d="m 12.033183,1.5833136 0.284996,-3.1032946 8.359896,-0.2216639 0.474994,4.2432803 -1.741645,7.2199098 -1.456648,2.6599668 -3.514956,-0.981655 -1.519982,0.03167 z"
         id="path463" /></clipPath><clipPath
       clipPathUnits="userSpaceOnUse"
       id="clipPath522"><path
         style="fill:#ffffff;fill-rule:evenodd;stroke-width:0.845873;paint-order:markers fill stroke"
         d="M 6.7765822,16.719791 2.6599668,13.046504 0.50666034,7.5365724 1.8049774,3.4516235 7.9799003,2.1216401 l 4.0216167,0.8549893 0.854989,2.1533065 0.696658,2.9449633 -2.343304,4.8449388 -1.4919774,0.54861 -0.5038069,0.414242 -0.3806547,0.31348 -0.1791314,0.291088 -0.1343488,0.425438 -0.044783,0.515003 0.067174,0.716526 -0.3806544,0.593373 z"
         id="path524" /></clipPath></defs><g
     inkscape:label="Calque 1"
     inkscape:groupmode="layer"
     id="layer1"><text
       xml:space="preserve"
       style="font-style:normal;font-variant:normal;font-weight:normal;font-stretch:normal;font-size:25.9815px;font-family:Tabitha;-inkscape-font-specification:Tabitha;text-align:center;text-anchor:middle;fill-rule:nonzero;stroke-width:0;paint-order:markers fill stroke;letter-spacing:0px;direction:ltr;writing-mode:lr-tb;fill:#000000;stroke:#000000;stroke-opacity:1;stroke-dasharray:none;stroke-linejoin:miter;stroke-linecap:butt;stroke-miterlimit:4"
       x="127.15858"
       y="28.859608"
       id="text236"
       transform="scale(0.96332969,1.0380662)"><tspan
         sodipodi:role="line"
         id="tspan234"
         style="font-style:normal;font-variant:normal;font-weight:normal;font-stretch:normal;font-size:25.9815px;font-family:Tabitha;-inkscape-font-specification:Tabitha;stroke-width:0;direction:ltr;writing-mode:lr-tb;fill:#000000;stroke:#000000;stroke-opacity:1;stroke-dasharray:none;stroke-linejoin:miter;stroke-linecap:butt;paint-order:markers fill stroke;stroke-miterlimit:4;fill-rule:nonzero"
         x="127.15858"
         y="28.859608">Ferme Saint Jean</tspan></text><g
       id="g612"
       transform="translate(0.6455324)"><path
         style="fill:#000000;stroke-width:0.0208351"
         d="m 13.563008,11.65027 c -0.05378,-0.06778 -0.05519,-0.08536 -0.01533,-0.191206 0.02281,-0.06058 0.103611,-0.144056 0.329424,-0.340338 0.632538,-0.549817 0.922511,-0.842517 1.327395,-1.3398782 0.858699,-1.0548301 1.503356,-2.2638352 2.020904,-3.7900552 0.190759,-0.562539 0.432739,-1.45721 0.55114,-2.0377254 l 0.03396,-0.1665142 -0.047,-0.1492527 c -0.09644,-0.3062368 -0.116648,-0.4515841 -0.116648,-0.8392619 0,-0.3148456 0.0057,-0.3854768 0.04342,-0.5368194 0.04829,-0.1938175 0.163747,-0.4963313 0.249536,-0.6538411 l 0.05611,-0.1030189 -0.01027,-0.87936694 c -0.0056,-0.48365186 -0.0035,-0.85711373 0.0049,-0.82991523 0.0083,0.027198 0.03189,0.17455637 0.05235,0.32746187 0.03396,0.2538677 0.04775,0.42238006 0.09453,1.1551406 0.01135,0.1777715 0.03142,0.3005024 0.07268,0.4444126 0.193144,0.6737341 0.131387,1.313442 -0.186654,1.9334314 -0.0644,0.1255363 -0.0888,0.2027977 -0.113347,0.3588024 -0.04157,0.2642258 -0.04153,0.2643629 0.03676,0.1166385 C 18.09434,3.850687 18.401401,3.536003 18.668637,3.3892774 l 0.117526,-0.064527 0.121583,-0.4690198 c 0.06687,-0.2579607 0.144361,-0.5637496 0.172201,-0.6795308 0.06613,-0.2750293 0.07607,-0.1891095 0.02443,0.2112693 -0.0405,0.3140529 -0.101937,0.645272 -0.177737,0.9582377 -0.02493,0.1029166 -0.06143,0.2727202 -0.08113,0.377341 -0.137173,0.7286604 -0.521253,1.2661726 -1.100424,1.5400241 -0.08645,0.040877 -0.0879,0.043317 -0.137275,0.2314806 -0.02745,0.1045925 -0.05419,0.2047732 -0.05943,0.2226234 -0.0052,0.01785 0.05555,-0.036276 0.135083,-0.1202799 0.174599,-0.1844139 0.406121,-0.3409999 0.631527,-0.4271222 0.09187,-0.0351 0.179559,-0.071328 0.194871,-0.080507 0.03641,-0.021824 0.231215,-0.4235892 0.438045,-0.9034089 0.09082,-0.2106872 0.167527,-0.3694562 0.170461,-0.3528199 0.01668,0.094542 -0.252271,0.8842093 -0.437666,1.2850375 C 18.613902,5.2624909 18.5229,5.473672 18.478465,5.5873673 18.227991,6.2282635 17.8841,6.5946029 17.359198,6.7797005 l -0.157753,0.055629 -0.08748,0.2082653 c -0.04811,0.1145462 -0.08778,0.2157785 -0.08816,0.2249612 -3.71e-4,0.00918 0.05152,-0.024409 0.115318,-0.074648 0.160897,-0.126703 0.360857,-0.222622 0.582887,-0.2796055 0.103679,-0.026609 0.204139,-0.04838 0.223246,-0.04838 0.04947,0 0.266483,-0.2894406 0.653534,-0.8716689 0.165121,-0.2483865 0.185451,-0.2672906 0.124545,-0.1158116 -0.0769,0.1912497 -0.303783,0.6054414 -0.502485,0.91731 -0.102456,0.1608073 -0.228034,0.3815007 -0.279062,0.49043 -0.06355,0.1356673 -0.151239,0.2720603 -0.27837,0.4330004 -0.15261,0.1931958 -0.215274,0.254256 -0.352623,0.3436014 -0.200861,0.1306594 -0.367588,0.1977763 -0.60223,0.2424299 -0.09647,0.018358 -0.18145,0.046734 -0.188882,0.063068 -0.0074,0.01633 -0.04307,0.0818 -0.0792,0.145475 -0.03613,0.06368 -0.06338,0.118689 -0.06056,0.122243 0.0028,0.0036 0.04935,-0.01472 0.103407,-0.0406 0.154089,-0.07379 0.34514,-0.117548 0.576915,-0.132138 l 0.21343,-0.01343 0.157752,-0.142736 c 0.08676,-0.078511 0.270499,-0.2536066 0.4083,-0.3891073 0.416539,-0.4095847 0.400111,-0.3950967 0.371441,-0.3275817 -0.03655,0.086069 -0.449778,0.5942452 -0.673502,0.82825 -0.11259,0.117765 -0.240737,0.278611 -0.301094,0.377925 -0.189393,0.3116357 -0.385451,0.5133297 -0.646367,0.6649477 -0.205058,0.1191592 -0.368999,0.1667232 -0.636049,0.1845372 l -0.224532,0.01498 -0.193048,0.2554592 c -0.142976,0.1892002 -0.181013,0.2514492 -0.146649,0.2399982 0.02552,-0.0085 0.139987,-0.02759 0.254374,-0.04242 0.441841,-0.05728 0.922754,0.08371 1.310383,0.384167 0.08642,0.06699 0.185197,0.150897 0.219501,0.186468 0.05244,0.05437 0.03134,0.04641 -0.132499,-0.05001 -0.427769,-0.251739 -0.771756,-0.343635 -1.213187,-0.324102 -0.403564,0.01786 -0.713431,0.126955 -0.877122,0.308816 l -0.09038,0.100418 0.111355,-0.02272 c 0.173152,-0.03533 0.567138,-0.0097 0.760923,0.04942 0.145184,0.04432 0.541194,0.256914 0.417579,0.224174 -0.613911,-0.1626 -1.149251,-0.144385 -1.540405,0.05241 -0.06635,0.03338 -0.191622,0.12543 -0.278386,0.204553 -0.537457,0.490126 -0.662907,0.558882 -0.771046,0.422593 z m 0.838604,-1.357691 c 0.08521,-0.138485 0.17051,-0.3656452 0.202419,-0.5390462 0.03263,-0.1773012 0.03709,-0.5272664 0.0091,-0.7102654 -0.01066,-0.06962 -0.01627,-0.130521 -0.01245,-0.135334 0.0091,-0.01153 0.07817,0.210367 0.106943,0.343784 0.03365,0.156042 0.02938,0.5249494 -0.0078,0.6783144 -0.0271,0.1116602 -0.04779,0.1457082 -0.1567,0.2578752 -0.192932,0.198702 -0.204606,0.207341 -0.141434,0.104672 z m 0.425053,-0.4444132 c 0.08029,-0.2649362 0.08642,-0.3061302 0.07824,-0.5262784 -0.01145,-0.308159 -0.06018,-0.4598317 -0.207324,-0.6452757 -0.141781,-0.178687 -0.274808,-0.25053 -0.465602,-0.251455 -0.182703,-8.87e-4 -0.293282,0.06476 -0.438375,0.260237 -0.112515,0.151588 -0.134128,0.139185 -0.05249,-0.03012 0.134457,-0.278863 0.402622,-0.4112223 0.689194,-0.3401668 0.374845,0.092943 0.62812,0.4863798 0.659049,1.0237645 l 0.01107,0.1924072 -0.14397,0.181837 c -0.07918,0.1000102 -0.137589,0.1607862 -0.129792,0.1350552 z m 0.529708,-0.7309414 c -0.28056,-0.7135837 -0.269497,-1.3649455 0.03529,-2.0774882 0.05118,-0.119656 0.09306,-0.2435393 0.09306,-0.2752966 0,-0.2474672 0.214398,-1.460537 0.250168,-1.4154562 0.0043,0.00545 -0.01266,0.2358399 -0.03775,0.5119795 -0.02509,0.2761396 -0.05053,0.6178531 -0.05656,0.7593635 -0.01058,0.248575 -0.009,0.2629973 0.04508,0.4257132 0.103035,0.3097521 0.141673,0.5476104 0.14172,0.8724396 5.6e-5,0.3325872 -0.03951,0.5632015 -0.146822,0.8559225 -0.06815,0.1858857 -0.223548,0.5007057 -0.24716,0.5007057 -0.0082,0 -0.04288,-0.07105 -0.07703,-0.157883 z m 0.789531,-1.3219528 c -0.118765,-0.2249553 -0.202046,-0.448825 -0.258711,-0.6954473 -0.03308,-0.1439532 -0.04033,-0.2362737 -0.04044,-0.5145831 -1.11e-4,-0.299261 0.0058,-0.365296 0.05032,-0.5613634 0.02775,-0.1222135 0.06777,-0.3853526 0.08894,-0.5847535 0.04491,-0.4230746 0.14933,-1.0967957 0.201207,-1.2981528 l 0.03616,-0.1403409 0.0015,0.093561 c 8.46e-4,0.051458 -0.0191,0.3461741 -0.04433,0.6549239 -0.06036,0.7387344 -0.06043,0.7350897 0.01654,0.8712288 0.09484,0.1677531 0.209465,0.4711347 0.264852,0.7010135 0.04316,0.1791256 0.04948,0.2458121 0.04939,0.5211753 -9.3e-5,0.2641252 -0.0078,0.3523143 -0.04741,0.5392375 -0.04793,0.2264355 -0.174044,0.6068794 -0.201167,0.6068794 -0.0081,0 -0.06074,-0.08702 -0.116892,-0.193378 z M 16.81015,6.5438867 C 16.645403,6.2925622 16.52114,6.0088284 16.438993,5.6964158 c -0.04784,-0.181954 -0.05232,-0.2285731 -0.05282,-0.5496683 -4.37e-4,-0.283117 0.0071,-0.3892353 0.03929,-0.5496683 0.02645,-0.1320177 0.04381,-0.3126043 0.05166,-0.5374902 0.01379,-0.394852 0.05028,-0.815043 0.103568,-1.1925206 0.03652,-0.2586924 0.04585,-0.3005348 0.06236,-0.2795922 0.0042,0.00536 -0.0014,0.3531353 -0.01251,0.7728332 l -0.02019,0.7630872 0.09333,0.1570582 c 0.359292,0.6046497 0.458889,1.2611889 0.295376,1.9471135 -0.04274,0.1793011 -0.113136,0.4049874 -0.126021,0.4040314 -0.0031,-2.339e-4 -0.03143,-0.039703 -0.0629,-0.087713 z m 0.447087,-1.7046339 c -0.186246,-0.271883 -0.310974,-0.5402316 -0.3921,-0.8435928 -0.04051,-0.1514678 -0.05019,-0.2373103 -0.05749,-0.5096124 -0.0075,-0.2790201 -0.0027,-0.3620633 0.03221,-0.5613634 0.02254,-0.1286458 0.04825,-0.3549454 0.05713,-0.502888 0.02993,-0.4986646 0.138484,-1.3319251 0.185598,-1.42458417 0.01939,-0.038126 0.01554,0.11139087 -0.02129,0.82813557 -0.0093,0.180104 -0.017,0.4247703 -0.01722,0.5437028 l -3.97e-4,0.2162412 0.08816,0.1383185 c 0.325119,0.5101201 0.450424,1.0880673 0.366853,1.6920454 -0.0328,0.2370467 -0.104729,0.5371583 -0.131432,0.5483764 -0.01048,0.0044 -0.05999,-0.051746 -0.110022,-0.1247791 z"
         id="path1270"
         clip-path="url(#clipPath461)"
         transform="matrix(2.1236635,0,0,2.1236635,-6.6147255,2.4048154)" /><path
         style="fill:#000000;stroke-width:0.0400074"
         d="m 8.4026959,15.740931 c -0.095923,-0.11664 -0.1850286,-0.422783 -0.1850286,-0.635755 0,-0.156975 -0.2292728,-0.351961 -0.5621991,-0.478122 C 7.190097,14.450703 6.9939317,14.341145 6.5960001,14.035348 6.0779556,13.637248 5.925998,13.587303 5.2116507,13.580342 4.702126,13.575444 4.6199326,13.564794 4.4750094,13.485477 4.3013713,13.390449 4.10417,13.179575 4.10417,13.088933 c 0,-0.08754 -0.1158831,-0.181888 -0.2234085,-0.181888 -0.1583083,0 -0.330331,-0.205088 -0.330331,-0.393826 0,-0.08649 0.026132,-0.192595 0.058071,-0.235799 0.036147,-0.0489 0.058547,-0.173289 0.05933,-0.32948 0.00282,-0.562503 0.1219061,-0.861193 0.5115964,-1.283174 0.2958598,-0.320376 0.4279942,-0.599003 0.5346837,-1.1274587 0.065251,-0.3232047 0.085589,-0.9602549 0.030661,-0.9602549 -0.017491,0 -0.090377,0.061839 -0.1619773,0.1374207 C 4.2896333,9.0239334 3.6534569,9.2100434 3.1221248,9.1417845 2.4334644,9.0533145 2.2847393,8.9505333 2.2847393,8.5630848 2.2847393,8.1387243 2.5481886,7.593136 2.8843917,7.3212392 3.16682,7.0928315 3.4142368,7.0220147 3.8668533,7.0400339 4.7496624,7.0751806 4.8299092,7.0687545 4.997599,6.9494918 5.3626019,6.6898974 5.3015132,6.582009 4.6952781,6.4155609 4.468062,6.3531768 4.2287618,6.2746699 4.1634998,6.2411015 3.6420206,5.9728703 3.1992984,5.3441293 3.2416026,4.931851 l 0.012176,-0.1187139 0.3164227,0.2440537 c 0.3974298,0.3065329 0.6347576,0.4260177 1.001296,0.5041096 0.4044382,0.086167 0.5245891,0.078858 1.0594595,-0.064449 C 6.5234234,5.2577334 7.2697174,5.13734 7.8594928,5.13734 c 0.4182287,0 1.033274,0.1469282 1.6634134,0.3973733 0.2284167,0.090783 0.5004098,0.1865009 0.6044278,0.2127066 0.246898,0.062202 0.763088,0.030123 0.927615,-0.057647 0.35484,-0.1892958 0.6404,-0.6827817 0.674121,-1.1649728 0.02289,-0.3273872 0.07294,-0.3424819 0.173597,-0.05236 0.07779,0.2242138 0.09126,0.6337764 0.02983,0.906578 -0.06867,0.3049321 -0.274832,0.6940506 -0.477642,0.9015466 -0.24238,0.2479835 -0.515758,0.3756183 -0.936947,0.4374432 -0.412046,0.060483 -0.5657731,0.166892 -0.489272,0.3386738 0.02642,0.059305 0.04802,0.1787362 0.04802,0.2654037 0,0.086667 0.0143,0.1666161 0.03177,0.177664 0.01747,0.011051 0.18884,-0.044437 0.380815,-0.1233015 0.490358,-0.2014434 1.037153,-0.31102 1.382446,-0.2770418 0.38268,0.037657 0.728586,0.1565296 1.004984,0.3453674 0.421348,0.2878703 0.466389,0.4825589 0.201886,0.8726506 -0.217081,0.320154 -0.328314,0.439868 -0.603671,0.649718 -0.515511,0.3928678 -1.08879,0.5322772 -1.708685,0.4155162 -0.12908,-0.024314 -0.255777,-0.061976 -0.281548,-0.083695 -0.02577,-0.021719 -0.105868,-0.033695 -0.177988,-0.026612 l -0.131131,0.012878 0.0015,0.263037 c 8.15e-4,0.14467 0.03569,0.5211287 0.0775,0.8365737 0.06707,0.506021 0.0705,0.629882 0.02918,1.052149 -0.06262,0.639827 -0.157305,0.996164 -0.4587988,1.726767 -0.2882511,0.698512 -0.4613631,1.186718 -0.6981755,1.968985 -0.187314,0.618754 -0.2591744,0.728411 -0.4773453,0.728411 -0.1153436,0 -0.1695143,-0.0264 -0.2466736,-0.12022 z M 8.5349506,15.434965 C 8.9523003,14.814346 9.0760573,14.066742 8.8712507,13.403425 8.7101045,12.881518 8.5533922,12.797932 8.3791981,13.14098 l -0.076423,0.150503 -0.066405,-0.160434 c -0.075593,-0.182624 -0.08522,-0.409427 -0.039683,-0.935302 0.077189,-0.891497 -0.1328205,-1.249855 -0.6164339,-1.051878 -0.2300379,0.09417 -0.4958093,0.08463 -0.5504134,-0.01975 -0.059849,-0.114415 -0.015771,-0.285192 0.124884,-0.483849 0.1368459,-0.193285 0.1350404,-0.298366 -0.00539,-0.313523 -0.4588496,-0.04953 -0.7115474,-0.284801 -0.7115474,-0.6624897 0,-0.09832 0.101522,-0.4952543 0.2382839,-0.9316881 0.2331812,-0.7441046 0.2369924,-0.7635527 0.1779891,-0.9080349 -0.085136,-0.208453 -0.075157,-0.3285707 0.036787,-0.4431034 0.2751502,-0.2815108 0.6730328,0.074877 0.4764317,0.426745 -0.1098319,0.1965787 -0.058304,0.4856065 0.086572,0.4856065 0.028035,0 0.120621,-0.1417085 0.2057321,-0.3149077 C 7.755285,7.7841194 7.8833977,7.5988371 7.9953389,7.4932681 8.2762422,7.2283541 8.39413,7.278588 8.1950306,7.5783611 8.0880096,7.7395058 7.9254701,8.172952 7.9725859,8.1715782 7.9877357,8.1711371 8.0535151,8.0778392 8.1187784,7.9642496 8.2552202,7.7267731 8.5192867,7.5025313 8.7312682,7.4441307 8.9649963,7.3797397 9.0231673,7.2853143 8.9910633,7.0224228 8.9696093,6.8466898 8.9800183,6.7628783 9.0406663,6.6225764 9.1596912,6.3472881 9.2798162,6.2820704 9.9774989,6.1139737 10.173666,6.0667097 10.14648,5.9685199 9.9104199,5.8717086 9.6924999,5.7823386 8.9869343,5.5931874 8.5227995,5.4997121 8.3318419,5.4612541 8.2721449,5.4355131 8.3158613,5.4104821 c 0.033789,-0.019348 0.09951,-0.029538 0.1460439,-0.022642 0.046534,0.00689 0.091632,-0.00851 0.1002211,-0.034242 0.019108,-0.057211 -0.3127314,-0.1353232 -0.5748803,-0.1353232 -0.2081511,0 -0.8243835,0.070874 -0.9166187,0.1054199 -0.044249,0.016573 -0.031681,0.037186 0.049441,0.081095 0.059826,0.03238 0.1087638,0.073129 0.1087638,0.090552 0,0.075956 -0.2923209,0.1680717 -0.5333579,0.1680717 -0.4273449,0 -0.8497947,0.1265283 -1.0628521,0.3183356 C 5.5276148,6.0762813 5.4281831,6.2923348 5.3554606,6.5839828 5.2841952,6.8697792 5.1659812,7.1267723 5.0282447,7.2953227 4.9136135,7.4356059 4.9102504,7.5378843 5.015332,7.6888627 5.3026658,8.1017135 5.335301,8.50261 5.1185969,8.957306 4.9750791,9.2584326 4.8960562,9.6163983 4.8955234,9.9678143 4.895246,10.142379 4.8782784,10.181521 4.7463189,10.311785 c -0.081895,0.08085 -0.2064894,0.178012 -0.2768699,0.215927 -0.2526425,0.136101 -0.1237804,0.420149 0.2675646,0.589791 0.2796145,0.121208 0.3723283,0.133638 0.6601814,0.0885 0.7827847,-0.122737 0.8475103,-0.108159 0.9403789,0.21179 0.1199827,0.413385 0.054302,0.73412 -0.222526,1.08656 -0.1023812,0.130349 -0.1203756,0.178425 -0.087148,0.232887 0.069952,0.114656 0.3918005,0.296421 0.5675596,0.320541 0.1650926,0.02266 0.1669104,0.02146 0.5437324,-0.357393 0.4015451,-0.403707 0.3833802,-0.351877 -0.1007855,0.287585 l -0.229795,0.303504 -0.2348568,-0.0048 c -0.1346986,-0.0028 -0.3444984,-0.04488 -0.4919514,-0.09888 -0.1882679,-0.06896 -0.3523897,-0.09582 -0.6130683,-0.100378 -0.2519957,-0.0044 -0.4195186,-0.03074 -0.5735164,-0.09019 -0.2545819,-0.09827 -0.8431062,-0.148348 -0.7275595,-0.06191 0.037891,0.02836 0.1325579,0.06135 0.210356,0.07333 0.077795,0.01193 0.2660425,0.06167 0.4183206,0.110449 0.1843229,0.05904 0.3958596,0.0913 0.6328461,0.09655 0.2776837,0.0062 0.4082875,0.03013 0.5938207,0.109068 0.1308162,0.05566 0.3473817,0.124351 0.4812579,0.15264 0.2945206,0.06224 0.507087,0.01293 0.733412,-0.170095 0.1072664,-0.08674 0.1731311,-0.112459 0.2424597,-0.09466 0.1192954,0.03063 0.3711349,0.276099 0.5798656,0.565178 0.087937,0.12179 0.2047908,0.251536 0.259676,0.28833 0.2912442,0.195242 0.3024023,0.767709 0.029166,1.496219 -0.046769,0.124678 0.070618,0.04429 0.1861057,-0.127436 z m 0.9721906,-2.936436 c 0.0022,-0.164814 0.0066,-0.339786 0.0099,-0.388828 0.0032,-0.04904 0.08622,-0.170192 0.1843927,-0.269222 0.278693,-0.281102 0.3499721,-0.486648 0.3528451,-1.017496 0.0021,-0.380861 -0.0098,-0.468591 -0.08251,-0.607539 C 9.7895749,9.8669453 9.5218902,9.6925633 9.1076543,9.6524943 c -0.2658323,-0.02571 -0.5060525,0.03959 -0.5253895,0.142829 -0.00674,0.03573 0.096255,0.199618 0.2287729,0.3642047 0.3733335,0.463684 0.6242805,1.076515 0.5658075,1.381749 -0.02522,0.131584 -0.09122,0.142124 -0.190084,0.03035 -0.08455,-0.09558 -0.1888529,-0.10436 -0.2560219,-0.02155 -0.061899,0.0763 -0.063629,0.570261 -0.0025,0.72955 0.09698,0.252956 0.4189049,0.57303 0.5354549,0.532366 0.02175,-0.0075 0.04135,-0.148648 0.04356,-0.31346 z M 5.6814603,12.10314 C 5.7867137,12.0154 5.8092299,11.972933 5.7875483,11.903051 5.7450423,11.766019 5.620795,11.715057 5.5101163,11.789254 5.3269545,11.91204 5.1675082,12.285851 5.2287024,12.449007 c 0.022695,0.06052 0.047232,0.04889 0.1727997,-0.08198 0.080496,-0.08388 0.2064698,-0.202632 0.2799557,-0.263891 z M 4.4128479,12.00411 c 0.013097,-0.2052 -0.084227,-0.472944 -0.1719246,-0.472944 -0.066736,0 -0.1763053,0.111576 -0.1763053,0.179535 0,0.02879 0.036234,0.09948 0.080521,0.157078 0.044286,0.0576 0.099705,0.161039 0.1231545,0.229866 0.059764,0.175412 0.1303019,0.129773 0.1445599,-0.09353 z M 9.0400523,8.9390755 C 9.4182012,8.7457446 9.5365092,8.470076 9.3649142,8.1821291 9.2150332,7.9306222 8.8871081,7.8003675 8.6143178,7.8839865 8.4411676,7.9370625 8.1622944,8.2257831 8.0730133,8.4444044 c -0.066698,0.163315 -0.044716,0.3795516 0.046446,0.4569581 0.095062,0.080719 0.3443505,0.1576254 0.5170854,0.1595221 0.1040379,0.00114 0.2480688,-0.042338 0.4035096,-0.1218096 z M 8.3462137,8.7501163 C 8.1901006,8.7302943 8.1824846,8.6655303 8.3066659,8.4137808 8.4127534,8.1987009 8.5255499,8.1333123 8.791858,8.1325115 l 0.1984333,-5.949e-4 0.0049,0.1719856 c 0.0027,0.094592 -0.01179,0.1931273 -0.03225,0.2189668 -0.02358,0.029776 -0.02201,0.056586 0.0043,0.073206 0.1794179,0.1134592 -0.1998184,0.2075259 -0.621054,0.1540424 z M 8.7346061,8.5534287 c 0.070394,-0.086775 -4.946e-4,-0.1989441 -0.1257217,-0.1989441 -0.069581,0 -0.098097,0.025521 -0.1079163,0.096591 C 8.4798461,8.6039511 8.6375752,8.6730504 8.73461,8.5534288 Z M 8.5934189,8.4556527 c 0.013439,-0.022257 0.032293,-0.040467 0.041882,-0.040467 0.00958,0 0.017437,0.018211 0.017437,0.040467 0,0.022257 -0.018854,0.040468 -0.041882,0.040468 -0.023037,0 -0.030886,-0.018211 -0.017437,-0.040468 z"
         id="path434"
         clip-path="url(#clipPath522)"
         transform="matrix(2.1236635,0,0,2.1236635,-2.4777125,0.09854949)" /><g
         id="g1381"
         transform="matrix(2.1236635,0,0,2.1236635,-4.9154638,1.2223214)"><path
           style="fill:#000000;fill-opacity:1;stroke-width:0.049636"
           d="m 9.6498687,16.078472 c -0.03271,-0.138662 -0.09333,-0.331381 -0.134706,-0.428262 -0.07777,-0.182083 -0.09248,-1.181612 -0.02149,-1.460659 0.02188,-0.08602 0.117628,-0.281643 0.212769,-0.434714 0.155155,-0.249626 0.227415,-0.317979 0.7011133,-0.663203 0.343397,-0.250263 0.614776,-0.418028 0.775841,-0.479622 0.136242,-0.0521 0.450409,-0.217221 0.698149,-0.366933 0.44485,-0.268826 0.457189,-0.272893 0.994715,-0.327833 0.299353,-0.0306 0.695752,-0.09503 0.880886,-0.143195 0.658781,-0.171373 1.125732,-0.160152 1.519724,0.03652 0.133446,0.06661 0.321919,0.139513 0.41883,0.162 0.346278,0.08035 0.516256,0.555821 0.325353,0.910096 -0.134803,0.250166 -0.353099,1.018256 -0.331138,1.165131 0.0201,0.1344 -0.215847,0.749269 -0.436419,1.137306 -0.06638,0.116784 -0.273132,0.388116 -0.45944,0.602959 -0.29301,0.337886 -0.392362,0.423536 -0.735895,0.634403 -0.733285,0.450102 -1.576728,0.839219 -1.955546,0.902178 -0.306047,0.05087 -1.05745,-0.08009 -1.455662,-0.253693 -0.222112,-0.09683 -0.456658,-0.276883 -0.8325143,-0.639085 -0.06185,-0.05961 -0.129567,-0.205016 -0.164568,-0.353393 z m 0.6746063,0.445571 c 0.435372,0.121682 0.72713,0.09102 1.498922,-0.157538 1.423185,-0.458338 2.479858,-1.188096 3.327612,-2.298109 0.914274,-1.197114 1.039619,-1.782213 0.416239,-1.94297 -0.129708,-0.03345 -0.317343,-0.101226 -0.416967,-0.150616 -0.414189,-0.205339 -0.8326,-0.22135 -1.399011,-0.05353 -0.182074,0.05394 -0.4956,0.109821 -0.696724,0.12417 -0.490949,0.03502 -0.672273,0.08505 -0.912405,0.251745 -0.111385,0.07732 -0.288734,0.178983 -0.394109,0.225919 -0.592241,0.263797 -0.716411,0.332934 -0.932157,0.519014 -0.130266,0.112355 -0.206349,0.20147 -0.169072,0.198033 0.0881,-0.0081 -0.04453,0.146029 -0.253791,0.294975 -0.08737,0.06219 -0.20859,0.18772 -0.269366,0.27895 -0.1304663,0.195843 -0.1346193,0.19955 -0.1684633,0.150379 -0.04382,-0.06366 0.08534,-0.253936 0.3099723,-0.456645 l 0.213278,-0.192465 -0.216323,0.145213 c -0.155325,0.104266 -0.258238,0.217577 -0.3649773,0.40185 -0.166193,0.286913 -0.24549,0.71374 -0.135441,0.729027 0.100349,0.01394 0.1137,0.05315 0.07288,0.214017 l -0.03669,0.144604 0.131731,-0.189356 c 0.1374603,-0.197593 0.2753683,-0.249293 0.1823693,-0.06837 -0.02943,0.05726 -0.07824,0.233496 -0.108463,0.391643 -0.03022,0.158146 -0.06839,0.297039 -0.08482,0.308651 -0.01643,0.01161 -0.06036,-0.02318 -0.09761,-0.07731 -0.09498,-0.137998 -0.156338,-0.07214 -0.09051,0.09715 0.07056,0.181442 0.275787,0.237433 0.352501,0.09617 0.07487,-0.137863 0.08958,-0.137152 0.190309,0.0092 0.06123,0.08896 0.160916,0.150387 0.293282,0.180725 0.195262,0.04475 0.197484,0.04699 0.08469,0.08539 -0.105993,0.03608 -0.106763,0.04371 -0.0091,0.08986 0.05872,0.02774 0.133213,0.0404 0.165546,0.02813 0.68403,-0.259431 0.688187,-0.260313 0.73253,-0.155428 0.05198,0.122961 0.125626,0.108249 0.388652,-0.07764 l 0.194973,-0.137788 -0.228611,-0.01734 c -0.125736,-0.0095 -0.194301,-0.02887 -0.152368,-0.04296 0.04193,-0.01409 0.200721,-0.08003 0.35286,-0.146541 0.286175,-0.125105 0.361664,-0.12044 0.253731,0.01568 -0.03442,0.04341 -0.0717,0.133856 -0.08285,0.20099 -0.01929,0.116181 -0.01179,0.117784 0.155463,0.03328 0.09665,-0.04883 0.208637,-0.122799 0.248863,-0.164373 0.286932,-0.296549 0.326995,-0.324043 0.313675,-0.215272 -0.01134,0.0926 -0.0047,0.09533 0.05493,0.0227 0.141187,-0.171944 0.544046,-0.548264 0.581378,-0.543078 0.02142,0.003 0.01684,0.02103 -0.01017,0.04013 -0.02702,0.01909 -0.03807,0.05077 -0.02456,0.0704 0.01351,0.01962 0.05332,0.0059 0.08848,-0.03057 0.03516,-0.03644 0.203159,-0.206876 0.37334,-0.378751 0.255097,-0.257636 0.920868,-1.059696 1.184421,-1.426881 l 0.06389,-0.08902 -0.02253,0.14911 c -0.04346,0.287583 -0.218359,0.500084 -1.161828,1.411593 -1.045098,1.009693 -1.153984,1.08753 -1.924107,1.375438 -0.676591,0.25294 -1.304829,0.354225 -1.828243,0.294748 -0.2452,-0.02786 -0.460183,-0.04051 -0.47774,-0.0281 -0.01756,0.01241 0.02687,0.107983 0.09874,0.212387 0.100878,0.146562 0.179224,0.203399 0.343753,0.249383 z m 0.03622,-1.08392 c 0.03829,-0.03188 0.05133,-0.08454 0.02897,-0.117022 -0.03189,-0.04632 0.01625,-0.09886 0.223354,-0.243771 0.240272,-0.168118 0.260265,-0.174426 0.222445,-0.07018 -0.05153,0.142026 -0.232968,0.327518 -0.41026,0.419417 -0.07377,0.03824 -0.102803,0.04344 -0.06451,0.01156 z M 9.9306047,14.367046 c 0.1385743,-0.316165 0.3365083,-0.52696 0.7825173,-0.833362 0.241852,-0.16615 0.533134,-0.336236 0.647293,-0.377969 l 0.207563,-0.07588 -0.256838,0.217855 c -0.141261,0.11982 -0.284639,0.269525 -0.318617,0.332677 -0.04124,0.07665 -0.07139,0.100851 -0.0907,0.0728 -0.01591,-0.02311 -0.07765,-0.02782 -0.137197,-0.01046 -0.155558,0.04534 -0.628627,0.467839 -0.733675,0.655249 -0.1067433,0.190434 -0.1816943,0.204693 -0.1003443,0.01909 z m 0.7068733,1.084067 c 0.03647,-0.04444 0.201472,-0.191294 0.36668,-0.326332 0.314869,-0.25737 0.315711,-0.249356 0.01902,0.181071 -0.157854,0.229005 -0.166538,0.235531 -0.307223,0.230868 -0.139153,-0.0046 -0.142201,-0.0079 -0.07847,-0.08561 z m -0.282977,-0.752927 c 0.0667,-0.288648 0.125266,-0.386018 0.355732,-0.591439 0.162142,-0.144522 0.181609,-0.153502 0.118749,-0.05478 -0.305869,0.480357 -0.317198,0.504452 -0.200018,0.425427 0.424526,-0.286297 0.526564,-0.195415 0.111611,0.09941 -0.131413,0.09337 -0.275638,0.221384 -0.320501,0.284479 -0.107374,0.15101 -0.126921,0.102393 -0.06557,-0.163091 z m -0.185314,-0.416825 c 0.09073,-0.167067 0.168249,-0.183162 0.113115,-0.02349 -0.02875,0.08326 -0.06621,0.16181 -0.08324,0.174566 -0.06186,0.04632 -0.08194,-0.05521 -0.02988,-0.151081 z m 0.963434,0.413304 c 0.174703,-0.296254 0.269082,-0.408906 0.436906,-0.521495 0.201382,-0.135103 0.206458,-0.135809 0.08567,-0.01192 -0.248142,0.254524 -0.30176,0.509964 -0.07313,0.348378 0.04358,-0.0308 0.103384,-0.04646 0.132901,-0.0348 0.03508,0.01385 -0.09526,0.121811 -0.376304,0.311692 -0.236484,0.159775 -0.429728,0.289493 -0.42943,0.288264 2.98e-4,-0.0012 0.100818,-0.172282 0.22338,-0.380119 z m 0.696195,0.49168 c 0.07768,-0.03717 0.186251,-0.08368 0.241276,-0.103366 0.088,-0.03148 0.08776,-0.03869 -0.002,-0.05991 -0.124315,-0.0294 -0.07598,-0.06704 0.117358,-0.09138 0.201395,-0.02536 0.321316,-0.113539 0.232474,-0.170947 -0.05953,-0.03847 -0.04376,-0.05755 0.107339,-0.129826 0.243742,-0.11659 0.305455,-0.09608 0.229865,0.07638 -0.08146,0.185845 -0.496746,0.434617 -0.836998,0.501388 -0.198558,0.03897 -0.210967,0.03586 -0.08935,-0.02233 z m -0.05783,-0.44771 c 0.07002,-0.04829 0.09942,-0.05595 0.06532,-0.01702 -0.03409,0.03893 -0.09138,0.07845 -0.12731,0.08781 -0.03593,0.0094 -0.008,-0.02249 0.06199,-0.07079 z m -0.522468,-0.953933 c 0.06917,-0.09787 0.14198,-0.08429 0.09535,0.01779 -0.04668,0.102192 -0.09236,0.135949 -0.123247,0.09108 -0.01331,-0.01934 -7.55e-4,-0.06833 0.0279,-0.108871 z m 0.860533,0.433391 c 0.119664,-0.179628 0.350157,-0.318967 0.584695,-0.353462 0.118807,-0.01747 0.09877,0.0048 -0.177227,0.197133 -0.171151,0.119259 -0.343728,0.261612 -0.383505,0.31634 -0.124331,0.171064 -0.146391,0.02377 -0.02396,-0.160011 z M 11.1434,12.928642 c 0.0901,-0.127494 0.234373,-0.21246 0.364208,-0.214493 0.182829,-0.0029 0.132224,0.05505 -0.157897,0.180707 -0.185525,0.08035 -0.246246,0.09029 -0.206311,0.03379 z m 0.823596,0.594527 c 0.154809,-0.151238 0.505856,-0.307361 0.626795,-0.278758 0.07112,0.01682 0.06078,0.02785 -0.06207,0.06619 -0.08108,0.0253 -0.270784,0.112267 -0.421558,0.193261 -0.25432,0.136618 -0.264669,0.138014 -0.143165,0.01931 z M 11.749753,13.25979 c 0.05902,-0.08352 0.392138,-0.209912 0.425498,-0.161446 0.0142,0.02063 -0.06891,0.104467 -0.184687,0.186295 -0.151866,0.107331 -0.221025,0.1335 -0.248256,0.09394 -0.02076,-0.03016 -0.01741,-0.08362 0.0074,-0.118787 z m 0.477095,0.50807 c 0.09488,-0.141182 0.29672,-0.254384 0.340406,-0.190915 0.0426,0.06189 -0.0071,0.111104 -0.223344,0.221054 l -0.208606,0.106082 z m 0.496373,0.403414 c 0.02213,-0.01564 0.138089,-0.03335 0.257691,-0.03936 0.119603,-0.006 0.334826,-0.06197 0.478274,-0.124346 0.285739,-0.124256 0.363979,-0.05519 0.09639,0.08509 -0.24512,0.128503 -0.783577,0.236373 -0.831605,0.166595 -0.02254,-0.03275 -0.02288,-0.07234 -7.54e-4,-0.08798 z m -0.629053,-1.577158 c 0.155588,-0.0865 0.353919,-0.210632 0.440735,-0.275844 0.108003,-0.08113 0.257586,-0.131088 0.473701,-0.158219 0.353638,-0.04439 0.419892,0.003 0.08778,0.06285 -0.428126,0.07709 -0.641706,0.236229 -0.259692,0.193494 0.304398,-0.03405 0.182494,0.04193 -0.214426,0.133646 -0.219943,0.05082 -0.45039,0.138312 -0.550289,0.208916 -0.131185,0.09271 -0.182391,0.106198 -0.216286,0.05695 -0.03852,-0.05596 -0.0069,-0.08539 0.238481,-0.221796 z m 0.991587,0.954281 c 0.01913,-0.08812 0.309214,-0.265231 0.570832,-0.348512 0.138618,-0.04413 0.236665,-0.0603 0.217882,-0.03595 -0.05897,0.07645 -0.800297,0.437821 -0.788714,0.384464 z M 12.7208,12.827961 c 0.05051,-0.03619 0.115733,-0.05636 0.144947,-0.04482 0.06763,0.02671 -0.02991,0.09565 -0.147357,0.104145 -0.0727,0.0053 -0.07225,-0.0058 0.0024,-0.05933 z m 0.667073,-0.06272 c 0.145372,-0.102742 0.337017,-0.198899 0.436272,-0.218898 0.170548,-0.03436 0.821565,0.03214 0.757542,0.07739 -0.01724,0.01218 -0.215905,0.02093 -0.441481,0.01942 -0.385016,-0.0026 -0.425303,0.008 -0.657747,0.17227 -0.136186,0.09625 -0.271514,0.165559 -0.300729,0.154021 -0.03322,-0.01312 0.04402,-0.08963 0.206143,-0.204209 z m 0.694349,0.859964 0.289487,-0.199819 -0.10572,0.164637 c -0.15137,0.235729 -0.333049,0.36543 -0.410696,0.293196 -0.05494,-0.05111 -0.02729,-0.08254 0.226929,-0.258014 z m -0.07424,-0.250712 c 0.300987,-0.190408 0.309786,-0.192811 0.183009,-0.04999 -0.133263,0.150128 -0.443865,0.329814 -0.480008,0.277689 -0.01055,-0.01522 0.123095,-0.117686 0.296999,-0.227699 z m 0.386093,-0.501125 c 0.07789,-0.05505 0.311454,-0.05475 0.299485,3.84e-4 -0.01007,0.04638 -0.330679,0.129647 -0.356235,0.09252 -0.01345,-0.01953 0.01209,-0.06134 0.05675,-0.0929 z m -0.194684,-0.648386 c 0.301712,-0.0442 0.602636,-0.01509 0.587031,0.0568 -0.0053,0.02422 -0.108862,0.03829 -0.230232,0.03128 -0.121371,-0.007 -0.301082,-7.83e-4 -0.399359,0.01385 -0.09828,0.01463 -0.192206,0.007 -0.208733,-0.01706 -0.01653,-0.02401 0.09656,-0.0622 0.251293,-0.08487 z m 1.196755,0.440898 c 0.05587,-0.138531 0.10542,-0.190631 0.136915,-0.143971 0.01103,0.01634 -0.01589,0.09998 -0.05983,0.185855 -0.09239,0.180591 -0.153442,0.14742 -0.07709,-0.04188 z m -4.119621,4.305679 c 0.229192,0.0119 0.298039,-0.0179 0.239117,-0.103506 -0.02235,-0.03248 -0.0234,-0.07124 -0.0023,-0.08613 0.02876,-0.02032 1.006142,0.152497 1.037731,0.183493 0.0032,0.0032 0.07176,-0.02117 0.152314,-0.05405 0.129251,-0.05276 0.135078,-0.06253 0.04958,-0.08311 -0.132799,-0.03196 -0.05787,-0.131724 0.107784,-0.143515 0.190772,-0.01358 1.118635,-0.416925 1.372413,-0.596594 0.128904,-0.09128 0.268453,-0.230887 0.315009,-0.315188 0.04597,-0.08324 0.172204,-0.236668 0.280521,-0.340956 0.181764,-0.175002 0.434357,-0.529738 0.38235,-0.536963 -0.01233,-0.0017 -0.08028,0.07493 -0.150985,0.170319 -0.144572,0.195032 -0.299684,0.326387 -0.27327,0.231416 0.01943,-0.06988 0.360152,-0.53032 0.506551,-0.684549 0.130583,-0.137567 0.227921,-0.471453 0.164362,-0.563794 -0.04978,-0.07233 -0.05653,-0.0672 -0.215738,0.163912 -0.246716,0.358138 -0.664423,0.750556 -1.225712,1.151506 -0.37969,0.271229 -0.477198,0.356517 -0.396645,0.346947 0.05875,-0.007 0.22468,-0.08196 0.368744,-0.166618 0.278187,-0.16348 0.337125,-0.144621 0.149504,0.04784 -0.142001,0.145664 -0.466529,0.282043 -0.905783,0.380646 -0.355169,0.07973 -1.060689,0.365043 -1.075897,0.435099 -0.01259,0.058 0.447524,-0.04901 0.577396,-0.134294 0.09825,-0.06452 0.102287,-0.06267 0.04574,0.021 -0.124698,0.184508 -0.494048,0.300143 -0.792581,0.248139 -0.09361,-0.01631 -0.287313,0.0091 -0.430441,0.05656 -0.143128,0.04741 -0.353241,0.102885 -0.466918,0.123267 -0.113676,0.02038 -0.226871,0.05133 -0.251544,0.06876 -0.0721,0.05095 0.214347,0.168714 0.438726,0.180365 z m 1.328694,-0.397999 c 0.109398,-0.02725 0.344268,-0.137705 0.521933,-0.245461 0.272995,-0.165573 0.321296,-0.181783 0.311852,-0.104656 -0.02005,0.163711 -0.788169,0.496231 -0.975444,0.42227 -0.03149,-0.01243 0.03226,-0.0449 0.141659,-0.07215 z m 1.428128,-0.747577 c 0.09556,-0.07074 0.197651,-0.119189 0.226865,-0.107651 0.06191,0.02445 -0.08886,0.131004 -0.273663,0.193411 -0.108425,0.03661 -0.101597,0.0241 0.0468,-0.08576 z m 0.08659,0.177266 c 0.05818,-0.04674 0.162818,-0.140215 0.232526,-0.207716 0.103368,-0.100094 0.118669,-0.104898 0.08297,-0.02605 -0.02408,0.05317 -0.128714,0.146647 -0.232526,0.207716 -0.103811,0.06107 -0.141146,0.07279 -0.08297,0.02605 z m 0.305189,-0.662975 c 0.02992,-0.0462 0.07382,-0.0813 0.09755,-0.078 0.07027,0.0098 0.0324,0.08443 -0.06323,0.124667 -0.08478,0.03567 -0.0863,0.03359 -0.03432,-0.04666 z m 0.248199,-0.349857 c 0.08159,-0.110153 0.3681,-0.406497 0.451231,-0.466709 0.174555,-0.126433 0.04087,0.07877 -0.196281,0.301289 -0.235589,0.221053 -0.352187,0.296705 -0.25495,0.16542 z"
           id="path436" /></g></g></g></svg>
